<svg xmlns="http://www.w3.org/2000/svg" xmlns:xlink="http://www.w3.org/1999/xlink" version="1.1" id="Layer_1" x="0px" y="0px" viewBox="0 0 35.6 33" style="enable-background:new 0 0 35.6 33;" xml:space="preserve">
<style type="text/css">
	.st0{fill:#E17726;stroke:#E17726;stroke-width:0.25;stroke-linecap:round;stroke-linejoin:round;}
	.st1{fill:#E27625;stroke:#E27625;stroke-width:0.25;stroke-linecap:round;stroke-linejoin:round;}
	.st2{fill:#D5BFB2;stroke:#D5BFB2;stroke-width:0.25;stroke-linecap:round;stroke-linejoin:round;}
	.st3{fill:#233447;stroke:#233447;stroke-width:0.25;stroke-linecap:round;stroke-linejoin:round;}
	.st4{fill:#CC6228;stroke:#CC6228;stroke-width:0.25;stroke-linecap:round;stroke-linejoin:round;}
	.st5{fill:#E27525;stroke:#E27525;stroke-width:0.25;stroke-linecap:round;stroke-linejoin:round;}
	.st6{fill:#F5841F;stroke:#F5841F;stroke-width:0.25;stroke-linecap:round;stroke-linejoin:round;}
	.st7{fill:#C0AC9D;stroke:#C0AC9D;stroke-width:0.25;stroke-linecap:round;stroke-linejoin:round;}
	.st8{fill:#161616;stroke:#161616;stroke-width:0.25;stroke-linecap:round;stroke-linejoin:round;}
	.st9{fill:#763E1A;stroke:#763E1A;stroke-width:0.25;stroke-linecap:round;stroke-linejoin:round;}
</style>
<path class="st0" d="M33,1l-13.1,9.7L22.3,5L33,1z"/>
<path class="st1" d="M2.7,1l13,9.8L13.4,5L2.7,1z M28.2,23.5l-3.5,5.3l7.5,2.1l2.1-7.3C34.4,23.6,28.2,23.5,28.2,23.5z M1.3,23.7  l2.1,7.3l7.5-2.1l-3.5-5.3C7.4,23.5,1.3,23.7,1.3,23.7z"/>
<path class="st1" d="M10.5,14.5l-2.1,3.1l7.4,0.3l-0.2-8L10.5,14.5L10.5,14.5z M25.2,14.5L20,9.9L19.8,18l7.4-0.3  C27.2,17.6,25.2,14.5,25.2,14.5z M10.9,28.9l4.5-2.2l-3.9-3L10.9,28.9z M20.3,26.7l4.5,2.2l-0.6-5.2C24.1,23.7,20.3,26.7,20.3,26.7z  "/>
<path class="st2" d="M24.7,28.9l-4.5-2.2l0.4,2.9l0,1.2L24.7,28.9z M10.9,28.9l4.2,2l0-1.2l0.4-2.9L10.9,28.9z"/>
<path class="st3" d="M15.1,21.8l-3.7-1.1l2.6-1.2L15.1,21.8L15.1,21.8z M20.5,21.8l1.1-2.3l2.6,1.2L20.5,21.8L20.5,21.8z"/>
<path class="st4" d="M10.9,28.9l0.6-5.3l-4.1,0.1C7.4,23.7,10.9,28.9,10.9,28.9z M24.1,23.5l0.6,5.3l3.5-5.2L24.1,23.5z M27.2,17.7  L19.8,18l0.7,3.8l1.1-2.3l2.6,1.2C24.2,20.7,27.2,17.7,27.2,17.7z M11.4,20.7l2.6-1.2l1.1,2.3l0.7-3.8l-7.4-0.3L11.4,20.7z"/>
<path class="st5" d="M8.4,17.6l3.1,6.1l-0.1-3C11.4,20.7,8.4,17.7,8.4,17.6z M24.2,20.7l-0.1,3l3.1-6.1  C27.2,17.6,24.2,20.7,24.2,20.7z M15.8,18l-0.7,3.8l0.9,4.5l0.2-5.9L15.8,18z M19.8,18l-0.4,2.4l0.2,5.9l0.9-4.5L19.8,18L19.8,18z"/>
<path class="st6" d="M20.5,21.8l-0.9,4.5l0.6,0.4l3.9-3l0.1-3L20.5,21.8z M11.4,20.7l0.1,3l3.9,3l0.6-0.4l-0.9-4.5L11.4,20.7  L11.4,20.7z"/>
<path class="st7" d="M20.6,30.8l0-1.2l-0.3-0.3h-5L15,29.6l0,1.2l-4.2-2l1.5,1.2l2.9,2h5.1l3-2l1.4-1.2L20.6,30.8L20.6,30.8z"/>
<path class="st8" d="M20.3,26.7l-0.6-0.4H16l-0.6,0.4L15,29.6l0.3-0.3h5l0.3,0.3L20.3,26.7L20.3,26.7z"/>
<path class="st9" d="M33.5,11.4L34.6,6L33,1l-12.7,9.4l4.9,4.1l6.9,2l1.5-1.8l-0.7-0.5l1-1l-0.8-0.6l1-0.8L33.5,11.4L33.5,11.4z   M1,6l1.1,5.4l-0.7,0.5l1.1,0.8l-0.8,0.6l1,1L2,14.8l1.5,1.8l6.9-2l4.9-4.1L2.7,1L1,6z"/>
<path class="st6" d="M32,16.5l-6.9-2l2.1,3.1l-3.1,6l4.1,0h6.1L32,16.5z M10.5,14.5l-6.9,2l-2.3,7.1h6.1l4.1,0l-3.1-6L10.5,14.5  L10.5,14.5z M19.8,18l0.5-7.6l2-5.4h-8.9l2,5.4l0.4,7.6l0.2,2.4v5.9h3.7l0-5.9C19.7,20.4,19.8,18,19.8,18z"/>
</svg>