<svg xmlns="http://www.w3.org/2000/svg" id="Layer_1" enable-background="new 0 0 467.547 467.547" height="512" viewBox="0 0 467.547 467.547" width="512"><g><path d="m382.882 217.019c-77.684 117.126-335.422 109.463-245.088 13.565 56.491-33.23 130.397-69.811 197.202-81.208 21.943-3.741 37.487-9.294 45.728 27.6 2.212 9.896 3.313 22.921 2.158 40.043z" fill="#3e3e7a"/><path d="m341.177 193.198c-19.592 49.2-85.405 60.435-130.588 63.877-32.632-35.78 55.819-102.99 68.248-105.836s71.62 23.761 62.34 41.959z" fill="#88ffc3"/><path d="m363.476 175.117c-1.694 16.224-8.301 24.525-22.298 18.081-4.106-4.652-9.848-11.32-15.498-18.434-10.296 9.58-35.384 26.9-71.222 12.06-21.612 19.551-41.997 44.518-43.868 70.251-12.966 21.154-41.911 23.458-50.551-5.951-1.219-6.27 1.265-15.3 7.949-27.369 32.786-59.203 150.885-143.675 150.885-143.675s22.135 67.849 44.603 95.037z" fill="#00d2a9"/><path d="m396.323 231.903-201.93 123.682c-.385-2.777-31.055-67.545-34.355-104.461 8.942 34.711 152.249-27.613 203.437-76.007 11.162-10.551 24.406-31.59 27.221-39.88 10.115 11.242 10.03 55.088 5.627 96.666z" fill="#00e9b1"/><path d="m403.66 411.053c-47.945 20.78-117.826 44.105-170.456 52.444-43.14 6.832-78.533-3.756-90.814-24.305-17.747-29.701-27.578-71.83-31.065-109.578-6.993-75.84 6.931-87.504 26.468-99.029-6.3 8.16-10.58 17.352-10.482 27.217.527 51.317 207.673-18.11 255.57-40.782 26.009-12.324 40.372-18.943 49.208 13.998 18.437 13.21 9.365 72.914 11.29 96.822 4.826 53.466 5.529 63.592-39.719 83.213z" fill="#51518e"/><path d="m443.38 327.839c-19.133 11.666-47.797 15.648-75.727 2.772 16.997-14.311 18.013-35.427 40.854-50.315 27.534-17.946 30.865-22.275 23.567-49.276 36.687 16.77 44.788 76.404 11.306 96.819z" fill="#3e3e7a"/><ellipse cx="420.278" cy="309.513" fill="#f0e3e7" rx="18.618" ry="13.567" transform="matrix(.89 -.457 .457 .89 -94.954 226.04)"/><path d="m238.164 184.004c-5.52 7.62-12.71 13.8-21.39 17.87-31.62 14.82-70.96-4.03-87.86-42.09s-4.97-80.93 26.64-95.75c7.18-3.36 14.76-5 22.39-5.05 15.079 55.47 18.43 82.35 60.22 125.02z" fill="#f6c719"/><path d="m238.164 184.004c-30.56 32.4-74.55 6.18-91.51-30.44-16.18-34.92-5.39-86.65 31.29-94.58 25.95-.22 52.41 17.72 65.47 47.13 12.259 27.619 9.35 57.76-5.25 77.89z" fill="#f6d14f"/><ellipse cx="200.872" cy="128.672" fill="#f6c719" rx="35.999" ry="51.786" transform="matrix(.922 -.388 .388 .922 -34.205 88.113)"/><path d="m190.315 98.366c1.545 3.084 7.446 19.407-4.487 32.393 21.239 4.753 30.888 20.367 32.543 23.399-1.52-3.034-9.318-21.207 2.616-34.192-21.209-4.693-28.989-18.513-30.672-21.6z" fill="#51518e"/></g><g><path d="m433.78 229.643c-6.765-24.385-17.29-27.995-33.401-22.399 1.422-23.844 1.931-62.07-8.201-73.329-1.018-1.134-2.891-.752-3.381.697-1.643 4.859-6.921 14.006-12.94 22.546-7.468-13.082-18.009-13.327-28.392-11.9-14.82-29.584-26.574-65.412-26.693-65.776-.418-1.285-1.968-1.791-3.064-1.006-.317.227-31.257 22.411-65.446 51.576-6.989-51.781-56.683-86.968-97.555-67.814-32.547 15.254-44.938 59.385-27.624 98.375 9.663 21.759 27.655 39.428 49.781 45.84-.205.283-14.333 7.282-40.09 22.427-21.053 12.423-34.337 26.161-27.444 100.937 4.029 43.586 15.454 83.833 31.345 110.422 10.361 17.34 36.016 27.309 67.411 27.308 8.145 0 16.678-.671 25.429-2.059 52.613-8.337 122.412-31.562 170.942-52.58 46.425-20.134 45.774-31.312 41.023-84.047 33.475-21.813 25.184-81.46-11.7-99.218zm-56.588-67.486c5.832-7.938 11.143-16.638 13.941-22.705 5.379 10.244 7.289 35.458 5.14 69.344-4.474 1.808-9.434 4.156-14.248 6.439-35.09 16.606-153.286 57.477-215.558 59.011-1.447-5.493-2.583-10.578-3.366-15.168 24.467 17.986 124.728-25.757 178.147-63.52 15.297-10.813 25.726-19.488 35.944-33.401zm-164.195 91.428c3.502-24.558 23.587-47.721 41.868-64.415 26.249 10.429 51.385 5.248 70.578-11.481 3.801 4.729 8.084 9.813 12.729 15.133-32.394 22.756-84.513 49.328-125.175 60.763zm160.251-92.832c-3.34 4.475-6.615 8.366-9.599 11.398-4.497-5.774-9.279-13.522-14.253-23.099 10.986-1.261 18.289.661 23.852 11.701zm-199.684 40.41c-18.357-6.853-33.967-22.224-42.825-42.172-16.437-37.015-4.925-78.792 25.665-93.129 13.451-6.304 28.556-6.236 42.356-1.083 18.357 6.853 33.966 22.224 42.823 42.171 16.438 37.015 4.925 78.793-25.665 93.129-12.941 6.064-27.983 6.449-42.354 1.084zm7.503 6.355c41.622 9.046 75.413-26.063 71.725-72.655 29.625-25.421 57.228-45.842 65.048-51.543 8.781 25.837 25.947 70.052 42.911 91.621-6.407 5.916-13.737 11.53-19.301 15.559-5.264-6.019-10.041-11.721-14.202-16.96-.725-.913-2.075-1.014-2.929-.22-11.194 10.412-35.056 25.774-69.104 11.677-.712-.295-1.532-.154-2.106.365-19.902 18-41.303 42.826-44.299 69.36-13.638 3.548-43.135 9.691-46.825-4.02-2.284-12.165 11.617-33.334 19.082-43.184zm221.799 201.72c-48.054 20.813-117.588 43.998-169.979 52.3-8.628 1.368-17.02 2.03-25.013 2.029-29.879-.001-54.126-9.247-63.767-25.38-15.595-26.093-26.819-65.727-30.796-108.738-7.175-77.845 7.965-86.779 25.492-97.122 11.081-6.515 22.132-12.742 32.959-18.582-6.43 9.703-15.821 26.207-13.719 37.628.582 6.457 2.031 14.163 4.297 22.915-17.786-.074-28.514-3.752-31.86-10.963-.466-1.003-1.657-1.436-2.656-.972-1.002.465-1.438 1.654-.973 2.656 4.094 8.822 16.234 13.29 36.1 13.29 57.072 0 177.459-38.943 220.787-59.448 27.527-13.057 38.268-17.099 46.402 12.712 7.141 26.415 4.001 29.657-22.729 47.079-23.358 15.225-24.42 36.459-41.05 50.46-1.119.942-.88 2.733.451 3.346 25.77 11.88 53.753 10.196 74.854-1.306 4.48 49.864 4.436 59.345-38.8 78.096zm39.471-83.087c-16.043 9.782-42.887 15.723-71.046 3.897 15.23-14.583 17.012-34.178 38.306-48.057 26.563-17.314 31.53-22.713 25.533-47.122 32.16 18.628 37.874 72.583 7.207 91.282z"/><path d="m410.055 297.551c-5.311 3.688-8.724 8.801-9.361 14.027-.45 3.683.581 7.169 2.904 9.813.729.83 1.993.912 2.823.183.829-.729.911-1.993.183-2.823-1.584-1.802-2.254-4.115-1.939-6.689.492-4.036 3.36-8.233 7.672-11.226 10.875-7.552 24.804-4.09 23.551 6.167-.492 4.036-3.36 8.233-7.672 11.226-.907.63-1.132 1.876-.502 2.783s1.875 1.132 2.783.502c5.311-3.688 8.724-8.801 9.361-14.027.45-3.683-.581-7.169-2.904-9.813-5.655-6.438-17.721-6.496-26.899-.123z"/><path d="m222.732 177.823c18.959-8.886 24.601-38.146 12.575-65.226-7.092-15.968-19.205-28.442-32.404-33.369-8.444-3.153-16.706-3.036-23.896.334-18.96 8.886-24.602 38.147-12.575 65.226 7.091 15.967 19.204 28.442 32.402 33.369 7.835 2.924 16.208 3.271 23.898-.334zm-52.643-34.659c-11.149-25.104-6.387-52.011 10.616-59.98 6.623-3.105 13.92-2.777 20.8-.208 12.213 4.559 23.482 16.24 30.146 31.246 11.148 25.104 6.386 52.011-10.616 59.98-6.195 2.903-13.388 2.977-20.801.208-12.213-4.56-23.482-16.241-30.145-31.246z"/><path d="m177.716 187.293c-30.694-19.963-44.563-62.085-31.571-95.896.396-1.031-.119-2.188-1.149-2.584-1.03-.395-2.188.118-2.585 1.15-13.611 35.426.212 79.278 33.124 100.683.337.219.715.324 1.089.324 1.976 0 2.762-2.591 1.092-3.677z"/><path d="m216.613 155.136c.521.953 1.711 1.322 2.683.814.967-.506 1.35-1.693.861-2.668-.39-.778-9.409-19.201 2.302-31.943 1.04-1.132.465-2.973-1.041-3.306-17.926-3.966-26.082-14.612-29.349-20.604-.522-.958-1.715-1.321-2.683-.815-.967.506-1.351 1.693-.861 2.668.083.166 7.962 16.939-4.172 30.144-1.037 1.129-.468 2.968 1.036 3.305 21.035 4.707 30.244 20.607 31.224 22.405zm-21.692-47.099c4.748 5.007 11.924 10.191 22.53 13.129-5.379 7.506-5.529 16.113-4.367 22.78-4.976-5.183-12.715-11.178-23.71-14.328 5.3-7.173 6.206-15.166 5.547-21.581z"/><path d="m168.821 35.399c.33 1.061 1.456 1.643 2.503 1.317 1.056-.327 1.645-1.448 1.317-2.503-3.688-11.878-9.216-23.103-16.428-33.363-.634-.904-1.883-1.121-2.786-.486s-1.121 1.883-.485 2.786c6.972 9.919 12.315 20.769 15.879 32.249z"/><path d="m127.791 58.65c.718.841 1.982.939 2.819.223.841-.717.94-1.979.224-2.82-36.631-42.925-103.157-55.022-127.916-53.95-1.104.048-1.959.981-1.911 2.085s.988 1.966 2.085 1.911c15.28-.66 85.493 6.608 124.699 52.551z"/><path d="m109.491 99.686c2.099 0 2.771-2.829.914-3.78-19.014-9.744-51.874-15.279-87.078-1.587-1.029.4-1.54 1.559-1.14 2.589.4 1.029 1.557 1.541 2.589 1.139 33.973-13.21 65.565-7.928 83.805 1.419.292.149.603.22.91.22z"/></g></svg>